Coordinates
version=1
nRows=13
nColumns=36
inDegrees=yes

Units are S.I. units (second, meters, Newtons, ...)
If the header above contains a line with 'inDegrees', this indicates whether rotational values are in degrees (yes) or radians (no).

endheader
time	pelvis_tilt	pelvis_list	pelvis_rotation	pelvis_tx	pelvis_ty	pelvis_tz	hip_flexion_r	hip_adduction_r	hip_rotation_r	knee_angle_r	knee_angle_r_beta	ankle_angle_r	subtalar_angle_r	mtp_angle_r	hip_flexion_l	hip_adduction_l	hip_rotation_l	knee_angle_l	knee_angle_l_beta	ankle_angle_l	subtalar_angle_l	mtp_angle_l	lumbar_extension	lumbar_bending	lumbar_rotation	arm_flex_r	arm_add_r	arm_rot_r	elbow_flex_r	pro_sup_r	arm_flex_l	arm_add_l	arm_rot_l	elbow_flex_l	pro_sup_l
      1.74166670	     -5.44589408	      0.73045194	     -3.46930994	     -0.98097612	      1.37977123	     -0.06517500	      0.15002250	      1.29763097	    -14.53754143	      0.09103132	      0.00158880	     12.14098026	     -3.18050989	     -7.49999987	      0.19440077	      0.08373511	    -21.67423585	      0.10469872	      0.00182734	      9.20870283	      0.91663353	     -7.49999987	     -1.00260370	     -0.85482579	      1.95482529	      1.71414891	     -6.80046273	     22.85170100	     36.19566760	     74.01941656	      1.19974912	    -10.73705379	     24.18861688	     31.54660588	     85.68359664
      1.74583330	     -5.45553110	      0.73146765	     -3.50110818	     -0.98099980	      1.37679320	     -0.06580026	      0.18173890	      1.30073992	    -14.64864613	      0.09149090	      0.00159682	     12.20583070	     -3.23738263	     -7.49999987	      0.21994602	      0.08803578	    -21.76745445	      0.10633302	      0.00185586	      9.27447262	      0.88685296	     -7.49999987	     -1.08333522	     -0.86310014	      1.98927430	      1.73714833	     -6.84292592	     22.84123287	     36.15839419	     74.03218011	      1.15567514	    -10.78540834	     24.18713932	     31.49179848	     85.71225486
      1.75000000	     -5.55981059	      0.77608237	     -3.53373157	     -0.98073582	      1.37663974	     -0.06649690	      0.29813515	      1.25466301	    -14.60049860	      0.09122351	      0.00159215	     11.87749104	     -3.56195948	     -7.49999987	      0.32704506	      0.13905697	    -21.54370365	      0.10497053	      0.00183208	      9.10841687	      0.58773598	     -7.49999987	     -0.97041064	     -0.87529567	      2.10122311	      1.67138780	     -6.94648787	     22.68253526	     36.28412565	     73.49828186	      0.88244026	    -10.95192825	     24.21768308	     31.95954925	     84.82182937
      1.75416670	     -5.48445197	      0.81392515	     -3.48906921	     -0.98046394	      1.37863501	     -0.06390300	      0.20827365	      1.24427291	    -14.79341812	      0.09091154	      0.00158671	     11.96226371	     -3.39995467	     -7.49999987	      0.21857812	      0.14458046	    -21.61157225	      0.10518305	      0.00183579	      9.08230405	      0.45568629	     -7.49999987	     -1.15387567	     -0.94844107	      2.14132409	      1.74027466	     -6.91673855	     22.51219704	     36.29693468	     72.87852206	      0.77982132	    -11.13106241	     24.28542528	     32.25866139	     83.80327301
      1.75833330	     -5.55392246	      0.83926741	     -3.47954224	     -0.98126348	      1.37808718	     -0.06522608	      0.28296760	      1.22199525	    -14.94283604	      0.09133474	      0.00159409	     12.01531303	     -3.26652591	     -7.49999987	      0.30010905	      0.15074879	    -21.64763868	      0.10524001	      0.00183678	      9.15663046	      0.52889061	     -7.49999987	     -1.14678158	     -0.95939760	      2.19723069	      1.75722341	     -6.94146133	     22.41420277	     36.34835795	     72.40527642	      0.65765741	    -11.26855654	     24.42064896	     32.48371847	     83.04342313
      1.76250000	     -5.52134625	      0.86251260	     -3.40013663	     -0.98163873	      1.37383360	     -0.06538128	      0.24404030	      1.21300479	    -15.10169578	      0.09128666	      0.00159325	     12.07675550	     -3.21923174	     -7.49999987	      0.28217022	      0.17597587	    -21.72768131	      0.10568443	      0.00184454	      9.21738447	      0.44557494	     -7.49999987	     -1.27476936	     -1.00040189	      2.20412979	      1.82556011	     -6.98550927	     22.31734224	     36.43128328	     72.24116451	      0.60360016	    -11.46130320	     24.66498266	     32.73754960	     82.98163056
      1.76666670	     -5.74091676	      0.88764068	     -3.40759941	     -0.98063605	      1.37650425	     -0.06417786	      0.49503375	      1.20472828	    -15.26915481	      0.09176512	      0.00160160	     12.10427242	     -3.03185566	     -7.49999987	      0.51402741	      0.16039859	    -21.86085517	      0.10562907	      0.00184358	      9.24915598	      0.77740518	     -7.49999987	     -1.09937521	     -1.01178625	      2.41749575	      1.63561117	     -7.01421731	     21.62904953	     36.68062956	     73.62360634	      0.47008989	    -11.58660038	     24.32465363	     32.95822686	     86.26358681
      1.77083330	     -5.80924061	      0.85969362	     -3.28449219	     -0.98152250	      1.37577973	     -0.06532699	      0.58436366	      1.22810062	    -15.43911711	      0.09161671	      0.00159901	     12.06110226	     -3.24976217	     -7.49999987	      0.62001767	      0.13628933	    -21.50637288	      0.10541094	      0.00183977	      9.04451013	      0.22146748	     -7.49999987	     -1.12629799	     -0.94385253	      2.27785495	      1.73244708	     -7.04753503	     21.50177019	     36.76657807	     72.59508428	      0.28383405	    -11.72886861	     24.33501626	     33.26524440	     84.24578049
      1.77500000	     -5.97248329	      0.86307539	     -3.30520794	     -0.98178864	      1.37597482	     -0.06566241	      0.78992274	      1.21967880	    -15.62697287	      0.09176134	      0.00160154	     12.20199265	     -2.88852008	     -7.49999987	      0.81291213	      0.13929754	    -21.92326763	      0.10530182	      0.00183786	      9.36237040	      1.12097429	     -7.49999987	     -1.01353040	     -0.90777763	      2.37813264	      1.67161950	     -7.21454014	     21.63322409	     37.00994831	     72.42753206	      0.11057389	    -11.94964990	     24.75360097	     33.64442186	     84.00439800
      1.77916670	     -6.00232197	      0.86035544	     -3.24808869	     -0.98134871	      1.37583064	     -0.06428095	      0.82160119	      1.25196456	    -15.56401284	      0.09140046	      0.00159524	     12.01914361	     -3.27168174	     -7.49999987	      0.85786698	      0.13212889	    -21.62642756	      0.10477431	      0.00182866	      9.19864612	      0.59702634	     -7.49999987	     -1.10603413	     -0.91372089	      2.30326336	      1.68595899	     -7.22118526	     21.36015509	     37.14933452	     71.77612826	     -0.08690390	    -12.11004395	     24.72102216	     33.98196875	     82.89269698
      1.78333330	     -6.76669787	      0.88944085	     -3.17135020	     -0.98112720	      1.37439997	     -0.06474000	      1.62221611	      1.28470970	    -15.34350996	      0.09268580	      0.00161767	     11.87793316	     -3.82015306	     -7.49999987	      1.67727935	      0.13189693	    -21.04819773	      0.10564017	      0.00184377	      8.98189493	     -0.38574395	     -7.49999987	     -0.13364620	     -0.90532103	      2.28495062	      1.02169269	     -7.48641412	     21.24150122	     38.34231374	     70.99066593	     -0.90984642	    -12.47684742	     24.70807828	     35.32941639	     81.34907115
      1.78750000	     -6.02742453	      0.86621613	     -3.20043971	     -0.98119699	      1.37734483	     -0.06620833	      0.83012969	      1.26798041	    -15.44836172	      0.09249396	      0.00161432	     11.91658689	     -3.50714039	     -7.49999987	      0.88619284	      0.16174855	    -21.59803433	      0.10546536	      0.00184072	      9.12064772	      0.33878677	     -7.49999987	     -1.28382375	     -0.89530904	      2.27986907	      1.71920126	     -7.28485096	     20.88393819	     37.25787798	     70.33678416	     -0.43365455	    -12.34296603	     24.81385614	     34.47160977	     80.34674877
      1.79166670	     -6.15424917	      0.87946476	     -3.16136765	     -0.98442345	      1.37655856	     -0.06697686	      1.00147035	      1.24865913	    -15.40562019	      0.09305133	      0.00162405	     11.87022081	     -3.63408151	     -7.49999987	      1.06727780	      0.20079905	    -21.55043338	      0.10694609	      0.00186656	      9.08070322	      0.14966364	     -7.49999987	     -1.28723614	     -0.85117932	      2.28261822	      1.73677831	     -7.38602819	     20.70635180	     37.35979942	     69.94535941	     -0.50763313	    -12.48409554	     25.12091838	     34.64571285	     79.76608299
